<svg viewBox="0 0 24 24" xmlns="http://www.w3.org/2000/svg">
    <g fill="none" fill-rule="evenodd">
        <path d="M0 0h24v24H0z"/>
        <path d="M17.121 3.714H9.808v9.867h9.874V6.267a2.553 2.553 0 0 0-2.553-2.553h-.008zm-9.593 0h-1.26a2.553 2.553 0 0 0-2.554 2.553v1.26h3.814V3.715zm-3.814 9.907h3.814V9.808H3.714v3.813zm12.187 6.061h1.26a2.553 2.553 0 0 0 2.553-2.553v-1.228h-3.813v3.781zm-6.093.032h3.813v-3.813H9.808v3.813zm-6.094-3.813v1.26a2.553 2.553 0 0 0 2.553 2.553h1.26v-3.813H3.715z" fill="currentColor" fill-rule="nonzero"/>
    </g>
</svg>
