<svg viewBox="0 0 30 30" xmlns="http://www.w3.org/2000/svg">
    <g fill="none" fill-rule="evenodd">
        <path d="M0 0h30v30H0z"/>
        <path d="M25.204 15.007c3.243.084 4.055 3.9 1.67 7.854-1.367 2.268-3.24 3.73-4.899 4.654l-.393.211-.193.098-.377.182c-.062.03-.123.057-.184.084l-.356.155-.338.137-.163.062-.455.163-.274.09-.362.109-.38.1-.338.074c-1.49.095-4.438-2.208-5.26-5.225-.773-2.835 1.923-4.98 4.994-6.436l.53-.243.533-.23.267-.11.533-.209.265-.1.525-.188.514-.176.501-.162.485-.149.687-.197.427-.115.585-.147.509-.117.42-.087.224-.04.247-.036.056-.006zM15.679 1c3.384 0 6.492 1.169 8.935 3.126l.29.239-.002.005c3.29 2.542 2.345 11.696-1.022 9.297l-.447-.005-.46-.015-.475-.024-.485-.032-.496-.042-.506-.05-.514-.059-.784-.104-.53-.08-.534-.088-.537-.096-.54-.104-.54-.112-.54-.12-.537-.127-.268-.067-.534-.138-.53-.146-.523-.154-.517-.16-.51-.167-.5-.174-.245-.09-.485-.184-.237-.095-.466-.194-.453-.2a19.628 19.628 0 0 1-.22-.103l-.43-.21-.413-.216-.395-.222-.376-.228-.356-.234C6.364 8.17 5.442 6.387 6.953 4.406A6.34 6.34 0 0 1 8.17 3.2l.286-.206-.047-.015.295-.166.298-.16c.284-.159.585-.305.903-.437A14.263 14.263 0 0 1 15.679 1z" fill="currentColor" opacity="0.4"/>
        <path d="M28.061 22.856a15.102 15.102 0 0 1-6.125 5.877c-1.298.602-2.728.164-2.357-1.091.383-1.293 2.353-2.604 4.31-3.562l.532-.252c.264-.122.526-.236.78-.342l.5-.201c.08-.032.16-.062.24-.092l.456-.166.42-.14.377-.111c.293-.082.533-.133.7-.15.17-.016.242.099.167.23zM.923 10.378c1.082 1.427 2.333 2.719 3.397 4.16l.26.36.271.387.415.61.543.823.707 1.107.494.802c.85 1.433 1.355 2.6 1.665 3.525l.122.38.052.18.09.337.074.308.083.409.042.237.048.304c.016.101.028.238.036.4l.013.355.005.409-.003.446-.009.466-.024.662-.04.72-.039.471-.028.264-.03.215a.853.853 0 0 1-.066.249l-.109.002-.101-.007a1.664 1.664 0 0 1-.295-.069l-.204-.073a6.228 6.228 0 0 1-.718-.35 15.017 15.017 0 0 1-5.9-6.096A14.73 14.73 0 0 1 0 15.53a14.708 14.708 0 0 1 .765-4.705l.077-.223.081-.223zm20.895-6.833.227.004.299.011c.714.04 1.815.186 2.527.76C28.015 7.05 30 11.06 30 15.53c0 1.93-.37 3.775-1.044 5.467-.552.59-2.095.541-3.959.195l-.568-.112a30.67 30.67 0 0 1-.583-.129l-.595-.142-.602-.154-.908-.248-.9-.263-.882-.272-.848-.273-.8-.267-1.194-.415-1.269-.462-.688-.263-.798-.354-.392-.183-.424-.207-.448-.23-.465-.252c-1.967-1.101-4.214-2.797-4.509-5.025-.336-2.545 2.222-4.687 5.365-6.171l.544-.248.276-.12.557-.227.28-.11.563-.207c.188-.067.376-.131.564-.193l.563-.18.28-.083.556-.158c.184-.05.367-.097.548-.142l.538-.126.524-.112.257-.05.5-.086.48-.071c.47-.063.907-.1 1.299-.112zM9.41 2.18c1.674.032 1.82.845 1.665 1.495l-.045.158-.052.149-.057.135-.056.119-.137.242c-.962 1.435-3.071 2.654-5.04 3.46l-.533.21c-.44.166-.866.31-1.263.43l-.463.13-.43.107c-.684.157-1.207.21-1.447.138l-.006-.013.129-.253a14.85 14.85 0 0 1 2.719-3.685 15.039 15.039 0 0 1 2.945-2.275 4.122 4.122 0 0 1 1.327-.472l.27-.04.23-.022.244-.013z" fill="currentColor"/>
    </g>
</svg>
