<svg width="30" height="30" viewBox="0 0 30 30" xmlns="http://www.w3.org/2000/svg">
    <g fill-rule="nonzero" fill="none">
        <rect fill="#1E1E1E" width="30" height="30" rx="15"/>
        <path d="M23.534 18.133A2.877 2.877 0 1 1 18.546 21l-6.041-10.459a2.878 2.878 0 0 1 4.99-2.868l6.038 10.46z" fill="#4BDB4B" opacity=".4"/>
        <path d="M11.457 21a2.878 2.878 0 0 1-4.991-2.867l6.038-10.46a2.878 2.878 0 0 1 4.992 2.868L11.457 21z" fill="#4BDB4B" opacity=".8"/>
        <path d="M17.477 7.644a2.44 2.44 0 0 0-.105-.165c-.018-.026-.035-.05-.05-.077-.037-.05-.075-.095-.113-.141-.023-.028-.046-.057-.071-.084-.035-.038-.072-.074-.108-.11a2.392 2.392 0 0 0-.097-.095c-.033-.03-.065-.056-.1-.083-.041-.034-.082-.069-.126-.1l-.092-.063a5.02 5.02 0 0 0-.15-.096l-.031-.02c-.024-.013-.047-.023-.07-.036a8.142 8.142 0 0 0-.148-.074c-.049-.024-.084-.037-.127-.055l-.125-.05-.15-.05a3.09 3.09 0 0 0-.274-.066 2.86 2.86 0 0 0-.682-.048l-.126.009a2.708 2.708 0 0 0-.695.155l-.129.05a2.802 2.802 0 0 0-.274.131c-.023.012-.046.022-.068.035l-.03.019a2.07 2.07 0 0 0-.153.1c-.03.02-.059.039-.087.06-.047.034-.09.07-.134.106-.03.026-.061.05-.09.077-.03.026-.072.068-.107.103l-.1.1c-.034.034-.055.064-.082.096-.034.042-.069.083-.1.127l-.064.095c-.033.05-.064.096-.095.146-.529.892-.537 2-.02 2.9l2.495 4.322 2.496-4.323a2.872 2.872 0 0 0-.018-2.894z" fill="#4BDB4B"/>
    </g>
</svg>
