<svg width="30" height="30" viewBox="0 0 30 30" xmlns="http://www.w3.org/2000/svg">
    <g fill="none" fill-rule="evenodd">
        <path d="M0 0h30v30H0z"/>
        <path d="M26.25 22.5v1.25c0 1.375-1.125 2.5-2.5 2.5H6.25a2.5 2.5 0 0 1-2.5-2.5V6.25a2.5 2.5 0 0 1 2.5-2.5h17.5c1.375 0 2.5 1.125 2.5 2.5V7.5H15a2.5 2.5 0 0 0-2.5 2.5v10a2.5 2.5 0 0 0 2.5 2.5h11.25zM15 20h12.5V10H15v10zm5-3.125A1.872 1.872 0 0 1 18.125 15c0-1.037.837-1.875 1.875-1.875s1.875.838 1.875 1.875A1.872 1.872 0 0 1 20 16.875z" fill="currentColor" fill-rule="nonzero"/>
    </g>
</svg>
